<svg width="9" height="9" viewBox="0 0 9 9" fill="none" xmlns="http://www.w3.org/2000/svg">
<g clip-path="url(#clip0_83_4434)">
<path d="M0.266687 4.83335C0.20002 4.76669 0.166687 4.66669 0.166687 4.60002C0.166687 4.53335 0.20002 4.43335 0.266687 4.36669L0.733354 3.90002C0.866687 3.76669 1.06669 3.76669 1.20002 3.90002L1.23335 3.93335L3.06669 5.90002C3.13335 5.96669 3.23335 5.96669 3.30002 5.90002L7.76669 1.26669H7.80002C7.93335 1.13335 8.13335 1.13335 8.26669 1.26669L8.73335 1.73335C8.86669 1.86669 8.86669 2.06669 8.73335 2.20002L3.40002 7.73335C3.33335 7.80002 3.26669 7.83335 3.16669 7.83335C3.06669 7.83335 3.00002 7.80002 2.93335 7.73335L0.333354 4.93335L0.266687 4.83335Z" fill="url(#paint0_linear_83_4434)"/>
</g>
<defs>
<linearGradient id="paint0_linear_83_4434" x1="4.50002" y1="1.16669" x2="4.50002" y2="7.83335" gradientUnits="userSpaceOnUse">
<stop stop-color="#FFB45C"/>
<stop offset="1" stop-color="#FFA438"/>
</linearGradient>
<clipPath id="clip0_83_4434">
<rect x="0.166687" y="0.166687" width="8.66667" height="8.66667" fill="white"/>
</clipPath>
</defs>
</svg>
