<svg width="13" height="22" viewBox="0 0 13 22" fill="none" xmlns="http://www.w3.org/2000/svg">
<path d="M6.50042 4.21362C7.64842 4.21362 8.57963 3.27034 8.57963 2.10679C8.57967 0.943234 7.64842 0 6.50042 0C5.35166 0 4.42046 0.943234 4.42046 2.10679C4.4205 3.27034 5.35166 4.21362 6.50042 4.21362Z" fill="#242530"/>
<path d="M12.3479 10.7877L9.02891 5.60138C8.8013 5.24558 8.42076 5.02039 7.99993 5.01323C7.98877 5.01301 5.01122 5.01314 5.00002 5.01323C4.58439 5.01602 4.19874 5.24554 3.97104 5.60138L0.65211 10.7877C0.463689 11.0821 0.449322 11.4574 0.614568 11.7657C0.780259 12.0739 1.09896 12.2659 1.44529 12.2659C1.76577 12.2659 2.06411 12.1016 2.23856 11.8292L3.41356 9.99347L2.59868 14.3259C2.56914 14.4827 2.6102 14.6444 2.71068 14.7672C2.81089 14.8903 2.96008 14.9613 3.11763 14.9613H3.72738V20.8588C3.72738 21.4892 4.2317 22 4.85399 22C5.476 22 5.98028 21.4892 5.98028 20.8592V14.9612H7.02007V20.8588C7.02007 21.4888 7.52439 21.9996 8.14632 21.9996C8.76834 21.9996 9.27262 21.4888 9.27262 20.8588V14.9612H9.88236C10.04 14.9612 10.1892 14.8903 10.2893 14.7672C10.3899 14.6444 10.4308 14.4827 10.4014 14.3259L9.58638 9.99306L10.7613 11.8292C10.9358 12.1016 11.2342 12.2658 11.5546 12.2658C11.901 12.2658 12.2196 12.0739 12.3854 11.7656C12.5507 11.4574 12.5363 11.0821 12.3479 10.7877Z" fill="#242530"/>
</svg>
