<svg width="24" height="24" viewBox="0 0 24 24" fill="none" xmlns="http://www.w3.org/2000/svg">
<path d="M3.57994 17.92C3.51365 17.9217 3.44768 17.9102 3.38587 17.8862C3.32407 17.8622 3.26766 17.8261 3.21994 17.78C3.12769 17.6849 3.0761 17.5576 3.0761 17.425C3.0761 17.2925 3.12769 17.1652 3.21994 17.07L4.63994 15.66C4.73277 15.5672 4.85866 15.515 4.98994 15.515C5.12122 15.515 5.24711 15.5672 5.33994 15.66C5.43277 15.7529 5.48491 15.8787 5.48491 16.01C5.48491 16.1413 5.43277 16.2672 5.33994 16.36L3.92994 17.78C3.88373 17.8253 3.82901 17.861 3.76894 17.885C3.70887 17.9091 3.64463 17.921 3.57994 17.92ZM20.7799 17.78C20.8722 17.6849 20.9238 17.5576 20.9238 17.425C20.9238 17.2925 20.8722 17.1652 20.7799 17.07L19.3599 15.66C19.2671 15.5672 19.1412 15.515 19.0099 15.515C18.8787 15.515 18.7528 15.5672 18.6599 15.66C18.5671 15.7529 18.515 15.8787 18.515 16.01C18.515 16.1413 18.5671 16.2672 18.6599 16.36L20.0699 17.78C20.1161 17.8253 20.1709 17.861 20.2309 17.885C20.291 17.9091 20.3552 17.921 20.4199 17.92C20.4862 17.9217 20.5522 17.9102 20.614 17.8862C20.6758 17.8622 20.7322 17.8261 20.7799 17.78ZM12.4999 19.5V17.5C12.4999 17.3674 12.4473 17.2402 12.3535 17.1465C12.2597 17.0527 12.1325 17 11.9999 17C11.8673 17 11.7402 17.0527 11.6464 17.1465C11.5526 17.2402 11.4999 17.3674 11.4999 17.5V19.5C11.4999 19.6326 11.5526 19.7598 11.6464 19.8536C11.7402 19.9473 11.8673 20 11.9999 20C12.1325 20 12.2597 19.9473 12.3535 19.8536C12.4473 19.7598 12.4999 19.6326 12.4999 19.5ZM22.8899 9.32002C22.932 9.26881 22.9635 9.20982 22.9827 9.14642C23.0019 9.08302 23.0085 9.01646 23.002 8.95053C22.9955 8.8846 22.9761 8.82059 22.9448 8.76217C22.9136 8.70375 22.8712 8.65205 22.8199 8.61002C22.7687 8.568 22.7097 8.53648 22.6463 8.51725C22.5829 8.49803 22.5164 8.49148 22.4504 8.49798C22.3845 8.50448 22.3205 8.5239 22.2621 8.55514C22.2037 8.58637 22.152 8.62881 22.1099 8.68002C22.0699 8.74002 17.6899 14 11.9999 14C6.30994 14 1.92994 8.74002 1.88994 8.68002C1.80284 8.58002 1.68082 8.51707 1.54884 8.50406C1.41686 8.49105 1.28489 8.52895 1.17994 8.61002C1.07993 8.69713 1.01699 8.81915 1.00398 8.95113C0.990963 9.08311 1.02887 9.21507 1.10994 9.32002C1.29994 9.55002 5.82994 15 11.9999 15C18.1699 15 22.6999 9.55002 22.8899 9.32002Z" fill="#8A8B95"/>
</svg>
