<svg width="12" height="22" viewBox="0 0 12 22" fill="none" xmlns="http://www.w3.org/2000/svg">
<path d="M6.00043 4.16505C7.20788 4.16505 8.18694 3.23254 8.18694 2.08257C8.1869 0.932198 7.20788 0 6.00043 0C4.7926 0 3.81311 0.932198 3.81311 2.08253C3.81306 3.23254 4.79255 4.16505 6.00043 4.16505Z" fill="#242530"/>
<path d="M11.9082 11.4266L9.4357 6.03756C9.18654 5.49417 8.66204 5.1336 8.06052 5.03653C7.96952 5.01373 4.03074 5.01336 3.93664 5.03731C3.33595 5.13465 2.81256 5.49523 2.56384 6.03792L0.0915822 11.4262C-0.0566081 11.7498 -0.0234188 12.1224 0.179974 12.4177C0.383367 12.7131 0.729628 12.8909 1.10105 12.8909C1.53913 12.8909 1.93523 12.6444 2.11051 12.2628L3.04223 10.2323V20.8582C3.04223 21.4889 3.58008 22 4.24367 22C4.90764 22 5.44545 21.4889 5.44545 20.8582V13.6906H6.55477V20.8582C6.55477 21.4889 7.09262 22 7.75616 22C8.41931 22 8.95721 21.4889 8.95721 20.8586V10.2315L9.88936 12.2632C10.0646 12.6448 10.4607 12.8913 10.8988 12.8913C11.2702 12.8913 11.6165 12.7135 11.8199 12.4182C12.0233 12.1231 12.0568 11.7502 11.9082 11.4266Z" fill="#242530"/>
</svg>
