<svg width="32" height="46" viewBox="0 0 32 46" fill="none" xmlns="http://www.w3.org/2000/svg">
<path d="M15.7621 0.0909424C20.12 0.0909424 23.7266 1.62059 26.8824 4.81888C28.3851 6.20944 29.437 8.01715 30.3387 10.103C31.2403 12.1888 31.6911 14.2747 31.6911 16.3605C31.6911 20.8103 30.1884 25.2601 27.0326 29.7099C23.8769 34.2987 19.8195 38.0532 14.5599 41.2515C10.2019 43.8936 6.7456 45.2841 4.19094 45.2841C3.13902 45.2841 2.38765 45.006 1.63628 44.4498C1.03518 43.8936 0.584351 43.1983 0.584351 42.2249C0.584351 40.8344 1.486 39.7219 3.43957 38.7485C7.9478 36.5236 11.4041 34.4378 13.5079 32.2129C15.4615 30.2661 16.5134 28.7365 16.5134 27.7631C16.5134 26.9288 15.7621 26.3725 14.2593 26.0944L13.2074 25.9554H12.0052C8.69916 25.5382 6.14451 24.1476 4.04066 21.7837C1.93682 19.4197 1.03518 16.6386 1.03518 13.3013C1.03518 9.82486 2.23737 6.90469 4.79204 4.40169C7.79752 1.48151 11.4041 0.0909424 15.7621 0.0909424Z" fill="#3B3C4B"/>
</svg>
